<svg xmlns="http://www.w3.org/2000/svg" viewBox="0 0 500 500"><defs><style>.a{fill:#231f20;}.b,.c,.d{fill:none;stroke:#231f20;stroke-miterlimit:10;}.b{stroke-width:3px;}.c{stroke-width:2px;}.d{stroke-width:0.25px;}</style></defs><title>logo-lines</title><path class="a" d="M181,162.78a123.59,123.59,0,0,1-7.25-16.5,64.13,64.13,0,0,1-3.87-17.67A27.18,27.18,0,0,1,170,124a26.2,26.2,0,0,1,1-4.48,44.87,44.87,0,0,1,3.63-8.38,77.74,77.74,0,0,1,10.71-14.69,108.6,108.6,0,0,1,28.79-22,125.12,125.12,0,0,1,34.19-12.21,133.94,133.94,0,0,1,18.07-2.35,130.66,130.66,0,0,1,18.24.22A118.9,118.9,0,0,1,302.69,63c5.93,1.49,11.8,3.27,17.35,6.46a20.81,20.81,0,0,1,2.07,1.39A17.21,17.21,0,0,1,324,72.56a37.58,37.58,0,0,1,3,3.71,91.19,91.19,0,0,1,4.89,7.79c3,5.3,5.68,10.74,8.14,16.28a164.51,164.51,0,0,1,6.54,17,57.43,57.43,0,0,1,2.18,9.09,18.33,18.33,0,0,1,.17,2.51,7.38,7.38,0,0,1-.57,3,6.91,6.91,0,0,1-2.09,2.36,19.21,19.21,0,0,1-2.07,1.39,71.85,71.85,0,0,1-8.34,4.06c-2.79,1.19-5.61,2.29-8.43,3.36-5.65,2.14-11.32,4.15-17,6.13s-11.35,3.94-17,6c-2.8,1-5.61,2.05-8.33,3.17a37.5,37.5,0,0,0-3.86,1.79,5.94,5.94,0,0,0-.64.42l-.85.75c-.62.51-1.24,1-1.87,1.46-2.5,1.85-5,3.44-7.28,5.22a23.68,23.68,0,0,0-5.73,6,18.39,18.39,0,0,0-2.43,7.8c-.4,2.88-.53,6-1.54,9.18a14.25,14.25,0,0,1-2.35,4.52,13.79,13.79,0,0,1-1.8,1.86c-.32.28-.66.54-1,.79s-.67.47-1.11.72a16.29,16.29,0,0,1-4.81,1.52,41.46,41.46,0,0,1-4.65.55,145.55,145.55,0,0,1-18.22-.21c-6-.39-12-1-18-1.67-1.52-.19-2.94-.34-4.55-.59-1.44-.26-2.92-.47-4.39-.67-2.94-.38-5.9-.67-8.86-.82a74.82,74.82,0,0,0-8.86,0,36.42,36.42,0,0,0-8.55,1.46,23.42,23.42,0,0,0-7.24,4.54,77.47,77.47,0,0,0-6.31,6.25l-3.05,3.32a27.48,27.48,0,0,1-3.38,3.23,3.66,3.66,0,0,1-1.33.66,1.59,1.59,0,0,1-1.19-.22,1.76,1.76,0,0,1-.63-.85,4.27,4.27,0,0,1-.23-1.37,6.84,6.84,0,0,1,.06-1.27,19.69,19.69,0,0,1,1.46-4.47,135,135,0,0,1,8.8-15.81C167,182.36,173.88,172.49,181,162.78Zm0,0q-5.07,7.46-9.91,15c-3.25,5.05-6.45,10.13-9.5,15.29A134.57,134.57,0,0,0,153.22,209a18.07,18.07,0,0,0-1.23,4.1,4.38,4.38,0,0,0,.12,1.81c0,.08.07.1,0,0s-.17,0-.1,0a2.38,2.38,0,0,0,.64-.38,26.1,26.1,0,0,0,3-3.08l3-3.39a78.37,78.37,0,0,1,6.37-6.53,26,26,0,0,1,7.88-5.06A38.4,38.4,0,0,1,182,194.7a77.69,77.69,0,0,1,9.15-.15c3,.11,6.06.35,9.08.7,1.51.18,3,.38,4.52.62s2.94.34,4.4.5c5.95.6,11.92,1.08,17.88,1.38a140.57,140.57,0,0,0,17.78-.06,42.22,42.22,0,0,0,4.29-.55,13.12,13.12,0,0,0,3.75-1.17c.21-.12.5-.33.77-.52s.52-.39.76-.6a10.2,10.2,0,0,0,1.32-1.39,10.85,10.85,0,0,0,1.75-3.44,50.35,50.35,0,0,0,1.32-8.57,32.06,32.06,0,0,1,.89-4.7,18.46,18.46,0,0,1,2-4.56,27.22,27.22,0,0,1,6.54-7c2.43-1.94,5-3.59,7.31-5.33.58-.44,1.14-.88,1.66-1.33l.84-.74a7.83,7.83,0,0,1,1.22-.85,40.27,40.27,0,0,1,4.3-2c2.83-1.17,5.65-2.22,8.49-3.25,5.66-2.06,11.34-4,17-6s11.3-4,16.88-6.14c2.79-1.07,5.56-2.17,8.28-3.33a72.33,72.33,0,0,0,7.85-3.83,15.61,15.61,0,0,0,1.67-1.11,4.14,4.14,0,0,0,.94-.91,3.91,3.91,0,0,0,.19-1.37,15.29,15.29,0,0,0-.13-2,53.68,53.68,0,0,0-2-8.41,164,164,0,0,0-6.34-16.62c-2.4-5.44-5-10.79-7.92-16-1.46-2.57-3-5.1-4.66-7.47a37.49,37.49,0,0,0-2.64-3.35,13.58,13.58,0,0,0-1.41-1.35,17.82,17.82,0,0,0-1.66-1.13,45.82,45.82,0,0,0-7.83-3.61c-2.75-1-5.58-1.83-8.44-2.55a115.68,115.68,0,0,0-17.48-2.89,131.47,131.47,0,0,0-35.42,1.67A122,122,0,0,0,215.31,76.7a106.93,106.93,0,0,0-28.53,21.11A75.41,75.41,0,0,0,176,111.9a42.68,42.68,0,0,0-3.73,8,24.41,24.41,0,0,0-1.08,4.26,25.64,25.64,0,0,0-.26,4.39,63.29,63.29,0,0,0,3.38,17.51A123.59,123.59,0,0,0,181,162.78Z"/><path class="a" d="M186.8,159.85a38.83,38.83,0,0,1,9.07-5.3,83.38,83.38,0,0,1,10-3.47,128.86,128.86,0,0,1,20.71-3.92,118.73,118.73,0,0,1,21.08-.46,62.34,62.34,0,0,1,10.43,1.62,32.68,32.68,0,0,1,5,1.69,16.77,16.77,0,0,1,4.44,2.83,18.45,18.45,0,0,0-4.54-2.59,35,35,0,0,0-5-1.46,64.65,64.65,0,0,0-10.37-1.32,126.07,126.07,0,0,0-20.92.68A138.28,138.28,0,0,0,206,151.82a84.51,84.51,0,0,0-10,3.18A41.09,41.09,0,0,0,186.8,159.85Z"/><path class="a" d="M197.8,196.57a46.08,46.08,0,0,0-.39,8.69,13.53,13.53,0,0,0,.81,4.14,31.82,31.82,0,0,0,1.85,3.87c2.77,5.08,6,10,8.4,15.47,2.49,5.71,2.32,11.94,2.91,17.55.07.7.18,1.38.3,2,.07.32.14.65.22.95l.14.45.07.22c0,.08,0,.06,0,.11a7,7,0,0,0,1.1,1.33c.47.47,1,.94,1.52,1.39a76.85,76.85,0,0,0,6.9,5.1,153.09,153.09,0,0,0,14.91,8.85,91.36,91.36,0,0,0,15.86,6.72,33.31,33.31,0,0,0,4.13.95c.7.1,1.36.18,2.09.22h.38a1.87,1.87,0,0,0,.34-.07,5.19,5.19,0,0,0,.85-.34,31.59,31.59,0,0,0,3.58-2.29,35.27,35.27,0,0,1,3.77-2.42,6,6,0,0,1,1.18-.45,2.13,2.13,0,0,1,.78-.05,1.37,1.37,0,0,1,.87.47,3.81,3.81,0,0,1,.58,1.19c.11.37.21.74.29,1.11a39,39,0,0,1,.64,4.39c.3,2.92.45,5.84.53,8.76-.37-2.9-.8-5.79-1.31-8.65-.27-1.43-.55-2.86-.93-4.23-.1-.34-.21-.67-.34-1a2.55,2.55,0,0,0-.4-.75c-.05-.05,0,0-.08,0a1.19,1.19,0,0,0-.3.06,4.5,4.5,0,0,0-.84.4,36.88,36.88,0,0,0-3.44,2.53,33.4,33.4,0,0,1-3.67,2.63,8.8,8.8,0,0,1-1.15.54,3.62,3.62,0,0,1-.72.17,3.07,3.07,0,0,1-.42,0h-.29a19.34,19.34,0,0,1-2.27-.14,34.25,34.25,0,0,1-4.45-.83,84.78,84.78,0,0,1-16.54-6.43,146.66,146.66,0,0,1-15.3-8.88,77.31,77.31,0,0,1-7.14-5.36c-.57-.5-1.14-1-1.69-1.58a8.93,8.93,0,0,1-1.61-2.08,3.67,3.67,0,0,1-.27-.7l-.18-.6c-.11-.4-.18-.79-.27-1.18-.14-.78-.24-1.54-.3-2.3-.25-3-.26-5.89-.53-8.74a31.66,31.66,0,0,0-1.72-8.21c-2.09-5.3-5-10.37-7.55-15.69a34.25,34.25,0,0,1-1.64-4.16,14,14,0,0,1-.53-4.48A40.38,40.38,0,0,1,197.8,196.57Z"/><path class="a" d="M332.41,190.26a60.17,60.17,0,0,1,3.19-8.34,40,40,0,0,1,4.59-7.75,15.81,15.81,0,0,1,3.33-3.25,7.72,7.72,0,0,1,4.67-1.49,10.31,10.31,0,0,1,4.64,1.43,19.69,19.69,0,0,1,3.75,2.82,33.94,33.94,0,0,1,5.73,7.19,27.24,27.24,0,0,1,3.49,8.64A12.37,12.37,0,0,1,366,192a8.2,8.2,0,0,1-.09,1.3c-.07.43-.16.79-.24,1.19a28.57,28.57,0,0,1-1.4,4.46,58,58,0,0,1-4.11,8.14,78.59,78.59,0,0,1-5.06,7.53,30.36,30.36,0,0,1-3.06,3.52,31.71,31.71,0,0,1-3.6,3,26.88,26.88,0,0,1-8.42,4.18,10.88,10.88,0,0,1-2.54.36,7,7,0,0,1-2.73-.53,13.08,13.08,0,0,1-3.9-3,3.28,3.28,0,0,0-1.15-.85.31.31,0,0,0-.25,0,2.28,2.28,0,0,0-.57.42,17.53,17.53,0,0,0-2.36,3.34,79.38,79.38,0,0,1-4.81,7.63,27.2,27.2,0,0,1-6.76,6.24l-3.69,2.49a14.7,14.7,0,0,0-3.17,2.74l.13-.42-.33,12.83q-.15,6.42-.4,12.84-.24-6.42-.39-12.84l-.34-12.83v-.23l.14-.19a15.71,15.71,0,0,1,3.37-3.26l3.57-2.67a26.59,26.59,0,0,0,6.05-6,84.2,84.2,0,0,0,4.43-7.58,19.16,19.16,0,0,1,2.72-4,4.51,4.51,0,0,1,1.21-.91,3,3,0,0,1,1.9-.32,3.82,3.82,0,0,1,1.56.68,9,9,0,0,1,1,.82,10.62,10.62,0,0,0,3.12,2.39,4,4,0,0,0,1.62.27,8.31,8.31,0,0,0,1.85-.28,24.25,24.25,0,0,0,7.42-3.78A28.27,28.27,0,0,0,350,216a29.89,29.89,0,0,0,2.77-3.2,75.7,75.7,0,0,0,4.92-7.21,57.46,57.46,0,0,0,4-7.72,25.11,25.11,0,0,0,1.35-4c.08-.33.17-.69.23-1a6.7,6.7,0,0,0,.08-.92,10.2,10.2,0,0,0-.15-2,25.61,25.61,0,0,0-3-7.86,31.61,31.61,0,0,0-5.09-6.88,19.4,19.4,0,0,0-3.26-2.65,8.45,8.45,0,0,0-3.73-1.38,6.08,6.08,0,0,0-3.71,1,16,16,0,0,0-3.2,2.77,39.09,39.09,0,0,0-4.95,7.24A80.67,80.67,0,0,0,332.41,190.26Z"/><path class="a" d="M343.91,133.52a29.26,29.26,0,0,1,4.67,8.72,58.61,58.61,0,0,1,2.54,9.54,68.26,68.26,0,0,1,1.1,9.77,45.1,45.1,0,0,1-.49,9.84c-.67-3.23-1.26-6.4-1.83-9.58l-1.73-9.49c-.58-3.16-1.18-6.3-1.83-9.43S344.92,136.66,343.91,133.52Z"/><path class="a" d="M247.91,212.42a45.62,45.62,0,0,1,8.46-6.75,92.22,92.22,0,0,1,9.51-5.21,53,53,0,0,1,10.12-4,34,34,0,0,1,10.87-1.1l0,.3c-3.41,1.32-6.73,2.46-10,3.67s-6.73,2.08-10,3.35a92.47,92.47,0,0,0-9.71,4.31,49.22,49.22,0,0,0-9,5.67Z"/><path class="a" d="M283.29,196.56a67.46,67.46,0,0,1,.09,10.83,8.71,8.71,0,0,1-.69,2.79,2.68,2.68,0,0,1-.43.66,6.7,6.7,0,0,1-.51.54,12.83,12.83,0,0,1-1,.93,44.16,44.16,0,0,1-4.46,3.18,44.88,44.88,0,0,1-9.78,4.87,25.18,25.18,0,0,1-10.84,1.29v-.2a51,51,0,0,0,10.16-3,94.74,94.74,0,0,0,9.65-4.36,43.66,43.66,0,0,0,4.46-2.83,7.41,7.41,0,0,0,1.79-1.66,8.2,8.2,0,0,0,.7-2.38,66.48,66.48,0,0,0,.7-10.68Z"/><path class="a" d="M202.4,217a20.64,20.64,0,0,1,13.72-1.28,23.4,23.4,0,0,1,6.55,2.74,16.51,16.51,0,0,1,5.27,5,10.81,10.81,0,0,1,1.48,3.46,6.11,6.11,0,0,1-.36,4,4,4,0,0,1-.5.88,6,6,0,0,1-.63.78,2.75,2.75,0,0,1-1,.71,4.35,4.35,0,0,1-1,.32,14,14,0,0,1-3.63.15A63.94,63.94,0,0,1,208.75,231c4.56.48,9.14,1,13.63,1.07a14.87,14.87,0,0,0,3.2-.3,2.24,2.24,0,0,0,.62-.22c.2-.1.18-.09.38-.33a3.35,3.35,0,0,0,.43-.58,2.15,2.15,0,0,0,.32-.62c.78-1.69.07-3.82-1.07-5.56a15,15,0,0,0-4.6-4.46,24.52,24.52,0,0,0-6-2.83A23.66,23.66,0,0,0,202.4,217Z"/><path class="a" d="M236,255.62l.9-.13c.29-.06.59-.16.87-.23.58-.14,1.15-.37,1.72-.55,1.13-.4,2.26-.83,3.38-1.25l6.75-2.61c2.26-.86,4.52-1.72,6.8-2.54l3.42-1.22c1.14-.41,2.3-.78,3.41-1.29a16,16,0,0,1-3,2.17c-1.05.63-2.13,1.22-3.22,1.78-2.18,1.11-4.43,2.07-6.7,3a62.61,62.61,0,0,1-7,2.23,33.77,33.77,0,0,1-3.63.72,14.42,14.42,0,0,1-1.86.14c-.31,0-.62,0-.93,0Z"/><path class="a" d="M244,261.23a15.2,15.2,0,0,0,2.68-.85l2.62-1c.87-.33,1.75-.67,2.64-1l2.68-.94a10.34,10.34,0,0,1-2.36,1.65,22.78,22.78,0,0,1-2.6,1.22,20,20,0,0,1-2.76.83A6.31,6.31,0,0,1,244,261.23Z"/><path class="a" d="M243.58,233.37a13.6,13.6,0,0,1-3.29,1.67c-1.15.43-2.29.83-3.45,1.17-2.29.69-4.65,1.24-6.8,1.86a5.85,5.85,0,0,0-.74.24l-.26.11h0s.1-.07.17-.19a.71.71,0,0,0,.16-.41.09.09,0,0,0,0,.06.57.57,0,0,0,0,.12,6.07,6.07,0,0,0,.13.68,28.69,28.69,0,0,0,1.1,3.18c.43,1.08.87,2.17,1.37,3.24a13.43,13.43,0,0,0,1.73,3.09,4.66,4.66,0,0,1-1.61-1,15.2,15.2,0,0,1-1.35-1.31,23.1,23.1,0,0,1-2.24-3,18.54,18.54,0,0,1-1.72-3.42,8,8,0,0,1-.29-1.06c0-.1,0-.21-.05-.33a2.4,2.4,0,0,1,0-.39,2.16,2.16,0,0,1,.38-1.26,2.08,2.08,0,0,1,.5-.48,2.33,2.33,0,0,1,.36-.22,5.36,5.36,0,0,1,.56-.26c.34-.13.65-.24,1-.33a43.44,43.44,0,0,1,7.21-1.3c1.19-.13,2.4-.2,3.59-.29S242.37,233.53,243.58,233.37Z"/><path class="a" d="M295.67,152.28c2.15,1.47,4.26,3,6.3,4.61,1,.8,2,1.63,3,2.51a16.56,16.56,0,0,1,2.74,3c.1.15.19.33.28.5a2.78,2.78,0,0,1,.19.6,5.17,5.17,0,0,1,.11,1.09,13.59,13.59,0,0,1-.18,2c-.18,1.31-.47,2.57-.57,3.79a5.77,5.77,0,0,0,.06,1.68,1.9,1.9,0,0,0,.24.61,1.76,1.76,0,0,0,.48.45c1,.74,2.1,1.45,3.17,2.18,2.15,1.45,4.31,2.92,6.4,4.55A26.66,26.66,0,0,1,321,182.6a6,6,0,0,1,1.31,2.05,11.86,11.86,0,0,1,.45,2.19,57.7,57.7,0,0,1,.26,8c-.07,2.62-.26,5.22-.56,7.83l-2.23-1.35c1.87-1.12,3.74-2.23,5.63-3.31.94-.55,1.89-1.09,2.84-1.62l2.86-1.59-.41.73c.19-3,.41-6,.73-8.94h.3c.31,3,.53,6,.72,8.94l0,.43-.43.31-2.65,1.92c-.88.64-1.77,1.26-2.66,1.88-1.78,1.26-3.59,2.49-5.39,3.71l-2.37,1.6.14-3,.37-7.7c.06-1.28.12-2.56.14-3.84s.05-2.54,0-3.75a8,8,0,0,0-.22-1.64,3.57,3.57,0,0,0-.73-1.22,21.46,21.46,0,0,0-2.63-2.58c-1.92-1.65-4-3.19-6.07-4.73-1-.78-2.08-1.53-3.14-2.38a3.62,3.62,0,0,1-.86-.94,3.7,3.7,0,0,1-.43-1.2,7.71,7.71,0,0,1,0-2.2c.19-1.36.52-2.62.77-3.86a13.35,13.35,0,0,0,.27-1.82,5.69,5.69,0,0,0,0-.84,1.53,1.53,0,0,0-.09-.34c0-.11-.1-.23-.17-.36a16.13,16.13,0,0,0-2.39-2.86c-.9-.91-1.85-1.78-2.81-2.64-1.94-1.7-3.94-3.36-6-5Z"/><path class="a" d="M319.76,210.58a9.71,9.71,0,0,1,2-2.63,14.8,14.8,0,0,1,5.2-3.29,9.83,9.83,0,0,1,3.24-.65,9.82,9.82,0,0,1-2,2.64,14.35,14.35,0,0,1-2.43,1.92,14.93,14.93,0,0,1-2.78,1.36A9.72,9.72,0,0,1,319.76,210.58Z"/><path class="a" d="M275.4,266.36c2.33-1.88,4.72-3.68,7.12-5.46s4.83-3.51,7.27-5.23,4.91-3.41,7.4-5l3.75-2.45c1.27-.79,2.52-1.61,3.81-2.37-1.16.95-2.35,1.84-3.53,2.77l-3.59,2.68c-2.39,1.79-4.83,3.51-7.27,5.24s-4.9,3.4-7.4,5S278,264.81,275.4,266.36Z"/><polyline class="b" points="307.53 245.68 346.86 246.4 356.74 268 363.44 274.4 360.75 290.34"/><path class="a" d="M347.2,280.66c4.36,3,8.72,6,13.11,8.91,1.1.72,2.21,1.43,3.33,2.11.55.34,1.11.68,1.66,1,.28.17.56.31.83.44a4.22,4.22,0,0,0,.78.35,3.58,3.58,0,0,0,.81.23c.29.06.59.11.89.15.6.09,1.22.11,1.94.19a8.41,8.41,0,0,1,2.25.55,11.19,11.19,0,0,1,2,1l.12.07.08.09a3.25,3.25,0,0,1,.38.49l.18.38a4.79,4.79,0,0,1,.2.61,9.57,9.57,0,0,1,.22,1.06c.11.67.17,1.32.22,2,.1,1.27.14,2.53.17,3.78,0,2.51,0,5-.05,7.48-.15,5-.4,9.91-.72,14.85s-.74,9.87-1.15,14.8-.95,9.84-1.47,14.76v-.27c.17,4.42.28,8.84.38,13.26s.23,8.84.28,13.27v.18c-.36,3.25-.73,6.46-1.23,9.68s-1,6.43-1.79,9.63a27.83,27.83,0,0,1-1.52,4.78c-.11.2-.19.4-.33.61l-.2.3-.28.32a1.83,1.83,0,0,1-.42.31,1.21,1.21,0,0,1-.42.14,2.54,2.54,0,0,1-.75.1,9.09,9.09,0,0,1-2.57-.43,45,45,0,0,1-8.87-4.09c1.49.63,3,1.21,4.53,1.72a35.12,35.12,0,0,0,4.6,1.3,8.19,8.19,0,0,0,2.22.16,1.2,1.2,0,0,0,.45-.09s.17,0,.15-.06,0,0,.05-.06l.11-.15.11-.21a4.34,4.34,0,0,0,.2-.48,26.15,26.15,0,0,0,1-4.56c.5-3.14.83-6.35,1.11-9.55s.54-6.42.72-9.61v.18c-.3-4.42-.54-8.83-.77-13.25s-.48-8.83-.66-13.25v-.13l0-.15,1.35-14.72q.71-7.37,1.3-14.73c.41-4.9.83-9.81,1.12-14.71.13-2.45.3-4.9.36-7.33,0-1.22,0-2.43,0-3.62,0-.59-.05-1.18-.11-1.73a7.15,7.15,0,0,0-.12-.76c0-.13,0-.19-.06-.27s0,0,0-.05a.3.3,0,0,0,.11.12l.2.16a12.35,12.35,0,0,0-1.48-.89,6,6,0,0,0-1.57-.49c-.59-.1-1.28-.18-2-.32l-1-.25a6.74,6.74,0,0,1-1.07-.39,6.62,6.62,0,0,1-1-.52c-.3-.18-.61-.36-.88-.56-.57-.37-1.13-.75-1.67-1.15-1.08-.78-2.14-1.6-3.18-2.41C355.17,287.63,351.15,284.19,347.2,280.66Z"/><path class="a" d="M305.56,372.14a34.71,34.71,0,0,1-3.57-4.9,13.36,13.36,0,0,1-1.3-2.84,4.86,4.86,0,0,1-.24-1.7,2.18,2.18,0,0,1,2.05-2.17,5.35,5.35,0,0,1,.91,0,11.19,11.19,0,0,1,1.59.31c1,.25,2,.57,3,.9,1.92.69,3.78,1.48,5.64,2.28,3.71,1.6,7.3,3.41,10.9,5.21s7.11,3.75,10.63,5.73l.1.06.08.06c3,2.41,6,4.81,8.92,7.3s5.83,5,8.65,7.59,5.61,5.25,8.28,8c1.31,1.41,2.63,2.82,3.83,4.33a26.77,26.77,0,0,1,1.71,2.36,8.81,8.81,0,0,1,.68,1.29c.17.44.38,1,.08,1.41.22-.45-.06-.92-.27-1.31a8.56,8.56,0,0,0-.85-1.13,25.4,25.4,0,0,0-1.95-2.07q-2.06-2-4.23-3.83c-2.87-2.51-5.84-4.91-8.79-7.33l-8.93-7.17c-3-2.37-6-4.78-9-7.12l.18.13c-3.47-2-7-3.91-10.48-5.8s-7-3.78-10.58-5.6q-2.65-1.37-5.37-2.57c-.9-.39-1.8-.78-2.71-1.08a9.21,9.21,0,0,0-1.33-.37,3.55,3.55,0,0,0-.6-.08.72.72,0,0,0-.35.06.82.82,0,0,0-.45.69,3.75,3.75,0,0,0,.05,1.28,14,14,0,0,0,.92,2.74A44.69,44.69,0,0,0,305.56,372.14Z"/><path class="a" d="M315.77,329.22a11.85,11.85,0,0,1,.49,1.93c.05.65.11,1.33.1,2l-.15,2c-.1.65-.23,1.3-.36,1.95a38.42,38.42,0,0,1-2.52,7.4,52.8,52.8,0,0,1-3.74,6.8,37.45,37.45,0,0,1-4.84,6.08c.8-2.5,1.78-4.86,2.77-7.2s2-4.63,3.07-6.91,2.06-4.56,3-6.86c.22-.58.45-1.16.7-1.73l.61-1.76c.21-.59.32-1.19.52-1.8S315.63,329.88,315.77,329.22Z"/><path class="a" d="M319.35,321a43.84,43.84,0,0,1,7.23-8.32,77.67,77.67,0,0,1,8.56-6.91,70,70,0,0,1,9.47-5.65,42.63,42.63,0,0,1,5.13-2.13,23.09,23.09,0,0,1,2.72-.7,7.94,7.94,0,0,1,2.79-.13,11,11,0,0,0-2.54.92q-1.21.57-2.37,1.26c-1.56.88-3.06,1.85-4.57,2.82-3,2-6,4-8.91,6.06s-5.87,4.16-8.8,6.26S322.24,318.76,319.35,321Z"/><path class="a" d="M291.79,297.94a46.48,46.48,0,0,1,6.93-4.11c2.41-1.2,4.86-2.28,7.34-3.29,5-2.05,10-3.75,15.13-5.36Q325,284,328.89,283c2.59-.65,5.17-1.36,7.78-1.92s5.24-1.11,7.88-1.56a43,43,0,0,1,8-.76c-2.61.55-5.13,1.4-7.67,2.2l-7.61,2.39-15.21,4.74-15.22,4.69C301.8,294.37,296.73,295.89,291.79,297.94Z"/><path class="a" d="M275.4,355.14q.21-16.29.75-32.57c.16-5.43.36-10.86.68-16.29.1-1.37.15-2.69.36-4.12A7.56,7.56,0,0,1,279,298.3a4.09,4.09,0,0,1,2-1.11,5.36,5.36,0,0,1,2.22,0,8.49,8.49,0,0,1,1,.27,1.13,1.13,0,0,1,.38.21,1.23,1.23,0,0,1,.25.27,2.56,2.56,0,0,1,.3.52,11.75,11.75,0,0,1,.67,2,77.41,77.41,0,0,1,1.36,8.08c.34,2.7.63,5.4.89,8.11.51,5.41,1,10.82,1.31,16.24q1.08,16.26,1.61,32.55l-1.15-16.25c-.38-5.42-.78-10.83-1.23-16.24s-.89-10.82-1.45-16.21c-.28-2.7-.58-5.39-.93-8.08a80.15,80.15,0,0,0-1.37-8,11.44,11.44,0,0,0-.59-1.85c-.13-.27-.3-.52-.36-.49a7.86,7.86,0,0,0-.92-.25,3.54,3.54,0,0,0-3.35.84,6.72,6.72,0,0,0-1.61,3.38c-.2,1.25-.27,2.65-.37,4-.33,5.41-.56,10.83-.83,16.26Z"/><path class="a" d="M242.68,271.17c-2,2.32-3.94,4.52-5.81,6.76a31.14,31.14,0,0,0-4.67,6.95,5.63,5.63,0,0,0-.43,1.68l0,.2s0-.05,0,0a2.51,2.51,0,0,0,.08.33c.09.28.21.59.35.91.54,1.27,1.24,2.58,1.87,3.91,1.34,2.63,2.68,5.3,3.82,8.12a48,48,0,0,1-5.84-6.91,33.06,33.06,0,0,1-2.43-3.91,9.45,9.45,0,0,1-.52-1.15,4.87,4.87,0,0,1-.22-.75,2.94,2.94,0,0,1-.07-.55l0-.36a8.17,8.17,0,0,1,.62-2.64,17,17,0,0,1,2.55-4.11,28.92,28.92,0,0,1,3.22-3.32A34.46,34.46,0,0,1,242.68,271.17Z"/><path class="a" d="M234.72,327.73c1.62-6.81,3.49-13.57,5.67-20.23q.81-2.5,1.77-5a42.44,42.44,0,0,1,2.17-4.84,6,6,0,0,1,1.78-2.19,7.71,7.71,0,0,1,2.51-1.21,2.29,2.29,0,0,1,1.61.19,3,3,0,0,1,1.07,1.14,8.39,8.39,0,0,1,.57,1.27,7.58,7.58,0,0,1,.42,1.34,43.47,43.47,0,0,1,.12,5.33c0,1.76-.11,3.51-.18,5.26-.15,3.5-.33,7-.58,10.49-.46,7-1,14-1.7,20.93l1-21,.42-10.49c.06-1.74.11-3.49.14-5.23a43.83,43.83,0,0,0-.15-5.16c-.46-1.4-1.07-3.62-2.5-3.15a7,7,0,0,0-2.19,1.05,5.13,5.13,0,0,0-1.49,1.86,70,70,0,0,0-4,9.6c-1.18,3.29-2.27,6.61-3.31,9.95S235.74,324.38,234.72,327.73Z"/><path class="a" d="M251.86,306.58a21.59,21.59,0,0,1,9.24,0,21.59,21.59,0,0,1-9.24,0Z"/><path class="a" d="M232.46,290.59c-2.69-.17-5.3-.55-7.86-.81a19.85,19.85,0,0,0-3.62-.16,3,3,0,0,0-.53.09c.1,0-.14.13-.27.27a11.23,11.23,0,0,0-1.08,1.34c-1.43,2-2.79,4.26-4.21,6.45s-2.89,4.39-4.58,6.49a41.25,41.25,0,0,1,2.5-7.6,39.28,39.28,0,0,1,3.86-7.1,13.43,13.43,0,0,1,1.44-1.7,4.28,4.28,0,0,1,1.33-.87,4.53,4.53,0,0,1,1.4-.21,16.12,16.12,0,0,1,4.21.69A32.62,32.62,0,0,1,232.46,290.59Z"/><path class="a" d="M194.47,347.33q-6.78-2.54-13.29-5.7c-1.09-.52-2.18-1.07-3.25-1.66-.53-.3-1.06-.59-1.61-.94a4.15,4.15,0,0,1-1.58-1.54c-1.19-2.2-2.15-4.37-3.17-6.57-2-4.4-3.85-8.83-5.68-13.27l-1.39-3.31c-.11-.28-.23-.55-.35-.82s-.25-.56-.36-.74l-.08-.16c0-.05-.06-.06-.09-.09s-.16-.12-.26-.18a4.59,4.59,0,0,0-.74-.33,46.58,46.58,0,0,0-7-1.57,32.65,32.65,0,0,1,7.27.63,4.67,4.67,0,0,1,.93.32,1.88,1.88,0,0,1,.9.73,8.79,8.79,0,0,1,.5.84c.16.27.3.53.44.8.58,1.07,1.1,2.16,1.64,3.24,2.12,4.33,4.08,8.72,6.07,13.09,1,2.18,2,4.41,3,6.47a2.25,2.25,0,0,0,.94.95c.46.32,1,.63,1.47.94l3.1,1.79C186.08,342.6,190.31,344.89,194.47,347.33Z"/><path class="a" d="M160,311.36c.27,1.13.5,2.27.67,3.42a17.28,17.28,0,0,1,.24,3.55,3.09,3.09,0,0,1-.21,1,1,1,0,0,1-.61.59,1,1,0,0,1-.42.05,1.12,1.12,0,0,1-.29,0,8.75,8.75,0,0,1-1.77-.58,31.24,31.24,0,0,1-3.18-1.56,46.5,46.5,0,0,1-5.92-3.85,28.39,28.39,0,0,1-2.7-2.35,13.76,13.76,0,0,1-2.34-2.9,5.3,5.3,0,0,1-.69-2v-1c0-.33.09-.64.13-1a13.52,13.52,0,0,1,1.23-3.51,25.25,25.25,0,0,1,4.15-5.84,13.44,13.44,0,0,1,2.81-2.38,2.49,2.49,0,0,1,1.11-.3,4.92,4.92,0,0,1,1,.09,14.91,14.91,0,0,1,1.75.45,43.16,43.16,0,0,1,6.41,2.8c-2.22-.67-4.43-1.38-6.66-1.85a13.93,13.93,0,0,0-1.64-.26,4.76,4.76,0,0,0-.75,0,1.3,1.3,0,0,0-.53.22,13,13,0,0,0-2.31,2.27A27.49,27.49,0,0,0,145.8,302a13,13,0,0,0-1,3c0,.25-.08.5-.09.75v.71a3.72,3.72,0,0,0,.46,1.24,12.3,12.3,0,0,0,2,2.49,33.62,33.62,0,0,0,2.5,2.25,57.51,57.51,0,0,0,5.53,4c1,.62,1.94,1.2,2.93,1.72a9.11,9.11,0,0,0,1.47.64l.14,0s.1,0,0,0-.05.07,0,0a2.43,2.43,0,0,0,.2-.67,19.72,19.72,0,0,0,.18-3.38C160.06,313.68,160,312.52,160,311.36Z"/><path class="a" d="M150.2,294.45a47.66,47.66,0,0,1,2.53-6.92,39.89,39.89,0,0,1,3.56-6.52c.19-.26.39-.52.62-.79a4.35,4.35,0,0,1,.87-.8,2,2,0,0,1,.81-.3,2.53,2.53,0,0,1,.67,0,6.29,6.29,0,0,1,1.05.21,18.75,18.75,0,0,1,3.5,1.51,37.93,37.93,0,0,1,6.13,4.11c-2.3-.88-4.53-1.85-6.77-2.73a27.19,27.19,0,0,0-3.31-1.09,2.5,2.5,0,0,0-1-.08,5.62,5.62,0,0,0-.93,1.12c-.66.94-1.3,2-1.9,3l-1.87,3.1C152.89,290.34,151.62,292.42,150.2,294.45Z"/><path class="a" d="M175.75,284.94a6.26,6.26,0,0,1,2.38-.17,6.86,6.86,0,0,1,2.32.67l.31.19a3.79,3.79,0,0,1,.37.31,3.07,3.07,0,0,1,.46.69,3.92,3.92,0,0,1,.32,1.31,4.56,4.56,0,0,1-.5,2.4c-.43-.73-.72-1.41-1-2a5.82,5.82,0,0,0-.45-.77,1,1,0,0,0-.2-.21l-.06,0-.17-.1c-.53-.27-1.19-.58-1.83-.93A9.77,9.77,0,0,1,175.75,284.94Z"/><path class="a" d="M168.6,293.32a7,7,0,0,1,2.56-.13,7.56,7.56,0,0,1,2.46.71,4.22,4.22,0,0,1,.63.38,3.91,3.91,0,0,1,.59.55,4.79,4.79,0,0,1,.69,1.24,4.84,4.84,0,0,1,.22,2.61c-.62-.65-1.1-1.28-1.59-1.83a8.07,8.07,0,0,0-.7-.72,2.85,2.85,0,0,0-.33-.23l-.41-.22c-.61-.3-1.33-.62-2-1A12.14,12.14,0,0,1,168.6,293.32Z"/><path class="a" d="M183.8,307.92a10.52,10.52,0,0,1,.59-2.2c.26-.71.53-1.42.82-2.13.56-1.41,1.13-2.82,1.73-4.22,1.2-2.8,2.42-5.6,3.86-8.31.37-.68.74-1.35,1.16-2,.22-.33.44-.66.69-1a3.85,3.85,0,0,1,1-1,1.31,1.31,0,0,1,.56-.18,1,1,0,0,1,.41.06l.19.09.37.21c.1.07.18.15.27.22a8.35,8.35,0,0,1,.88.92,19,19,0,0,1,1.37,1.94,39.51,39.51,0,0,1,4,8.45,3.48,3.48,0,0,1,.16,1.57,7.48,7.48,0,0,1-.43,1.27c-.32.74-.66,1.43-1,2.12-.69,1.38-1.45,2.7-2.21,4-1.54,2.64-3.18,5.22-4.86,7.76a38.32,38.32,0,0,1-2.73,3.74l-.25.23a.61.61,0,0,1-.26.13.44.44,0,0,1-.32-.06,1.83,1.83,0,0,1-.49-.46,9.11,9.11,0,0,1-.68-.95c-.42-.64-.79-1.31-1.17-2-.76-1.32-1.45-2.68-2.11-4.05-.34-.68-.66-1.37-.94-2.08A7.25,7.25,0,0,1,183.8,307.92Zm0,0a7.55,7.55,0,0,0,.65,2.17c.3.7.63,1.38,1,2.06.7,1.35,1.48,2.66,2.29,3.94.4.64.84,1.26,1.3,1.86.23.29.46.59.71.85a1.62,1.62,0,0,0,.36.29s0,0-.05,0-.06,0,0,0a1.29,1.29,0,0,0,.15-.17,37.43,37.43,0,0,0,2.35-3.84c1.47-2.65,2.85-5.35,4.2-8.06.69-1.35,1.35-2.71,2-4.06.32-.67.64-1.35.91-2a6.43,6.43,0,0,0,.31-.89,5.36,5.36,0,0,0-.15-.66,31.94,31.94,0,0,0-1.58-4.1c-.61-1.37-1.25-2.72-2-4-.37-.65-.73-1.28-1.13-1.88a7.61,7.61,0,0,0-.63-.78l-.16-.16-.11-.08-.06-.05s.12,0,.13,0,0,0,0,0a2.86,2.86,0,0,0-.67.58c-.23.26-.46.54-.69.83-.44.59-.86,1.22-1.27,1.85-1.62,2.54-3.09,5.21-4.46,7.92-.67,1.36-1.33,2.73-1.92,4.13-.3.7-.58,1.4-.85,2.11A10,10,0,0,0,183.8,307.92Z"/><path class="a" d="M157.54,281.64c-8.77-3.93-17.48-7.94-26.09-12.22a20.32,20.32,0,0,1-3.25-1.85,13.57,13.57,0,0,1-2.64-2.77,15.58,15.58,0,0,1-1.84-3.35,10.47,10.47,0,0,1-.55-1.88,16.21,16.21,0,0,1-.23-1.89,30,30,0,0,1,.28-7.43,6.53,6.53,0,0,1,.7-2,2.16,2.16,0,0,1,1.2-1,2,2,0,0,1,1.55.22c1.22.62,2.17,1.24,3.22,1.88,8.11,5.18,16,10.63,24,15.87a31.86,31.86,0,0,0,3,1.8l3.28,1.47,6.55,3c4.34,2,8.71,4,13,6.1-4.5-1.67-9-3.47-13.43-5.2l-6.7-2.68-3.34-1.35a35.25,35.25,0,0,1-3.22-1.78c-8.23-5-16.17-10.39-24.26-15.51-1-.61-2.06-1.3-3-1.78-.32-.17-.25-.09-.16-.13s0,0-.09.16a4.63,4.63,0,0,0-.47,1.38,29.89,29.89,0,0,0-.31,6.91,9.93,9.93,0,0,0,.6,3.26,14.35,14.35,0,0,0,1.56,3,12.32,12.32,0,0,0,2.25,2.47,19.76,19.76,0,0,0,2.94,1.78C140.63,272.54,149.12,277,157.54,281.64Z"/><path class="a" d="M182.45,276.49a5.66,5.66,0,0,1,3-1.2,2.73,2.73,0,0,1,2,.54,2.65,2.65,0,0,1,.66,1,6.38,6.38,0,0,1,.27.85,10.91,10.91,0,0,1-.56,6.2,17.16,17.16,0,0,1-.84-3c-.21-1-.35-1.93-.55-2.79-.06-.42-.28-.88-.25-.89s-.41-.29-.81-.38C184.53,276.65,183.52,276.62,182.45,276.49Z"/><path class="a" d="M178.58,276.49c-2.52-2.62-4.92-5.35-7.32-8.07l-7.18-8.22c-2.35-2.77-4.68-5.55-7-8.39-1.14-1.43-2.28-2.83-3.35-4.36-.27-.35-.52-.82-.78-1.23a13.76,13.76,0,0,1-.58-1.31c-.34-.88-.6-1.77-.86-2.66a40.83,40.83,0,0,1-1.57-11,12.58,12.58,0,0,1,.14-1.47l.18-.78.23-.67a26.34,26.34,0,0,1,1-2.61,11.18,11.18,0,0,1,1.53-2.52,3.73,3.73,0,0,1,1.42-1.1c.19,0,.38-.1.57-.13a3.08,3.08,0,0,1,.6,0,2.59,2.59,0,0,1,1,.48l.35.32a3,3,0,0,1,.25.29l.46.56.84,1.09,1.63,2.19,3.22,4.41,6.38,8.84c8.33,11.9,16.85,23.66,25.34,35.44,1.07,1.47,2.13,2.91,3.25,4.34a49.68,49.68,0,0,1,2.8,4.8q2.56,4.83,5,9.72c3.18,6.54,6.35,13.08,9.36,19.69-3.42-6.41-6.76-12.86-10.23-19.24-1.71-3.21-3.42-6.41-5.21-9.56a49.86,49.86,0,0,0-2.79-4.54c-1.15-1.4-2.28-2.85-3.38-4.29-4.45-5.77-8.68-11.67-13-17.53s-8.55-11.77-12.77-17.68l-6.3-8.88L158.7,228l-1.6-2.19-.82-1.07-.4-.5a2.59,2.59,0,0,0-.19-.23l-.15-.14c-.21-.14-.23-.16-.39-.12a2.19,2.19,0,0,0-.69.58,9.5,9.5,0,0,0-1.29,2.11,24.94,24.94,0,0,0-1,2.44l-.22.62-.13.54a10,10,0,0,0-.12,1.24,29.4,29.4,0,0,0,.34,5.27,49.38,49.38,0,0,0,1,5.27,14.37,14.37,0,0,0,1.9,4.81c1,1.48,2.09,2.92,3.18,4.36,2.2,2.88,4.47,5.72,6.73,8.55Q171.61,268.1,178.58,276.49Z"/><path class="a" d="M322.18,404.14q-8.26-11.11-16.46-22.29l-4.1-5.58-2.05-2.79-.51-.7-.26-.35-.25-.27a13.65,13.65,0,0,0-1.25-1.07c-3.63-2.75-7.56-5.21-11.43-7.69-7.79-4.95-15.66-9.77-23.56-14.54l-11.88-7.11-.74-.44a4,4,0,0,1-.43-.27l-.36-.24-1.43-1-2.84-2-5.67-4c-3.77-2.68-7.52-5.38-11.21-8.21-.92-.7-1.84-1.42-2.75-2.17a31,31,0,0,1-2.7-2.42,5.17,5.17,0,0,1-.36-.4l-.18-.25a1.92,1.92,0,0,1-.24-.46,1.81,1.81,0,0,1-.1-.27l0-.19,0-.39a3.22,3.22,0,0,1,.11-.81,4.17,4.17,0,0,1,1.52-2c.51-.39,1-.71,1.27-1,.12-.12.21-.24.17-.21s0,0,0,.07,0,0,0,0,0,0,0,0,0,.09.08.1a1.46,1.46,0,0,0,.19.13l.21.05c.2,0,0,0-.2.11a9.12,9.12,0,0,1-1.82.75,3.32,3.32,0,0,1-1.42.05,3.14,3.14,0,0,1-1.34-.67,4.19,4.19,0,0,1-1.3-2.11,10.2,10.2,0,0,1-.29-2,7.08,7.08,0,0,0-.18-1.42.68.68,0,0,0-.06-.16s0,0,0,0h0a1.45,1.45,0,0,0,.7.38,1.08,1.08,0,0,0,.7-.08l.09-.05,0,0-.22.23c-.34.36-.69.8-1,1.24-2.75,3.58-5.33,7.44-7.89,11.25q-7.66,11.49-14.89,23.29c-1.2,2-2.38,3.94-3.52,5.92-.57,1-1.13,2-1.66,3-.26.5-.52,1-.74,1.48-.11.24-.22.48-.29.68s-.06.2-.05.13v.05a.47.47,0,0,0,.05.21s0,0,0,0,0,.05.12.09a12.61,12.61,0,0,0,1.36.56,7.42,7.42,0,0,1,3.41,2.47l.31.43.16.17a2.65,2.65,0,0,0,.24.24l.29.28c.37.38.82.76,1.23,1.14l2.58,2.26c14,12,28.34,23.63,42.56,35.42,7.11,5.89,14.23,11.77,21.26,17.79,1.76,1.53,3.49,3,5.24,4.7l.66.73.5.57c.39.37.75.75,1.19,1.11.81.73,1.72,1.4,2.62,2.08a71.22,71.22,0,0,0,11.69,6.9,23.53,23.53,0,0,0,3.06,1.16,26.33,26.33,0,0,0,3.26.56c2.26.29,4.56.5,6.85.71,4.59.42,9.19.76,13.8,1.13,2.3.18,4.59.35,6.93.6.28,0,.63.09.94.14a2.84,2.84,0,0,1,1.11.47,4.41,4.41,0,0,1,1.33,1.68,8.17,8.17,0,0,0,.74,1.34.82.82,0,0,0,.78.35c.22,0,.47-.2.75-.61a15.31,15.31,0,0,0,.79-1.43,8.83,8.83,0,0,1,1-1.61,4,4,0,0,1,1.72-1.27,3,3,0,0,1,2.29.09,4.46,4.46,0,0,1,1.54,1.39c.74,1,1.25,2.05,1.9,2.82a2.08,2.08,0,0,0,1,.73l.26,0a.79.79,0,0,0,.23,0,3.14,3.14,0,0,0,.63-.29,15.82,15.82,0,0,0,2.53-2.11,67.3,67.3,0,0,0,4.55-5.12q2.18-2.69,4.22-5.46c.69-.93,1.36-1.86,2-2.8.28-.49.58-.94.83-1.45l.67-1.55a91.32,91.32,0,0,0,3.54-13.32c.93-4.52,1.72-9.07,2.4-13.64-.53,4.59-1.17,9.17-2,13.72a90.71,90.71,0,0,1-3.23,13.52c-.21.54-.45,1.09-.67,1.63s-.56,1.06-.85,1.58c-.65,1-1.3,1.92-2,2.87q-2,2.85-4.12,5.6a66.83,66.83,0,0,1-4.52,5.34,16.2,16.2,0,0,1-2.73,2.37,4.23,4.23,0,0,1-.93.45,2.13,2.13,0,0,1-.61.12,3.93,3.93,0,0,1-.6-.06,3.37,3.37,0,0,1-1.82-1.14c-.86-1-1.38-2-2-2.87a2.86,2.86,0,0,0-1-.91,1.28,1.28,0,0,0-1.07,0,4,4,0,0,0-1.8,2.13,15.28,15.28,0,0,1-.87,1.61,3.49,3.49,0,0,1-.73.84,1.89,1.89,0,0,1-.55.34,1.71,1.71,0,0,1-.66.18,2.4,2.4,0,0,1-1.27-.16,2.7,2.7,0,0,1-1-.75,9.3,9.3,0,0,1-1-1.65,2.69,2.69,0,0,0-.78-1,1.32,1.32,0,0,0-.47-.18c-.26,0-.48-.08-.78-.1-2.25-.21-4.57-.34-6.87-.49-4.61-.3-9.22-.58-13.83-.92-2.31-.18-4.62-.36-6.94-.62a29.66,29.66,0,0,1-3.57-.57,23.81,23.81,0,0,1-3.42-1.23,73.26,73.26,0,0,1-12.24-7c-1-.69-1.91-1.4-2.82-2.2-.46-.37-.9-.83-1.34-1.25l-.65-.73-.16-.18-.12-.12-.23-.25c-1.56-1.51-3.36-3-5.09-4.52-7-6-14.18-11.8-21.32-17.65L218.6,385.41c-7.14-5.87-14.29-11.7-21.34-17.73l-2.62-2.31c-.43-.41-.86-.78-1.3-1.22l-.34-.32c-.1-.11-.21-.21-.36-.39l-.4-.49-.2-.26a4.24,4.24,0,0,0-2.12-1.52,11.49,11.49,0,0,1-1.82-.81,5.08,5.08,0,0,1-.58-.43,3.43,3.43,0,0,1-.51-.63,3.29,3.29,0,0,1-.47-1.43l0-.32v-.16a1.76,1.76,0,0,1,0-.33,3.83,3.83,0,0,1,.19-.7c.13-.35.26-.63.39-.91.27-.57.54-1.09.82-1.62.56-1,1.14-2.05,1.72-3.06,1.17-2,2.37-4,3.59-6q7.29-11.82,15.07-23.31c2.61-3.83,5.18-7.65,8.07-11.38.37-.47.74-.92,1.19-1.41.11-.12.24-.24.39-.38a2.22,2.22,0,0,1,.3-.24,1.5,1.5,0,0,1,.28-.16,1.39,1.39,0,0,1,.9-.13c.83.26.89.61.85.51l.13.17a2,2,0,0,1,.21.33,4.1,4.1,0,0,1,.26.64,9.4,9.4,0,0,1,.28,2,7.76,7.76,0,0,0,.19,1.45,1.46,1.46,0,0,0,.46.81c.18.14.14.14.47.08a7.53,7.53,0,0,0,1.37-.58,2.9,2.9,0,0,1,1.46-.32,1.82,1.82,0,0,1,1.17.52,2.18,2.18,0,0,1,.53.81,2.82,2.82,0,0,1,.19.86,2.28,2.28,0,0,1-.15.92,3.17,3.17,0,0,1-.82,1.19c-.57.51-1.07.82-1.46,1.14a2.25,2.25,0,0,0-.66.67s0,0,0,.05a0,0,0,0,1,0,0v0s-.07-.13,0-.09l.08.1a3.1,3.1,0,0,0,.21.25,31.82,31.82,0,0,0,2.45,2.2c.87.72,1.77,1.44,2.67,2.15,3.6,2.84,7.3,5.59,11,8.32l5.6,4.07,2.81,2,1.4,1,.36.25a2.72,2.72,0,0,0,.3.19l.74.46,11.79,7.29c7.83,4.9,15.65,9.82,23.36,14.92,3.84,2.59,7.69,5.13,11.35,8a13.69,13.69,0,0,1,1.34,1.22l.33.38.25.35.49.71,2,2.84,4,5.68Q314.31,392.75,322.18,404.14Z"/><path class="a" d="M317.11,392.82a26.78,26.78,0,0,1,3.95,2.15,42,42,0,0,1,3.6,2.58c1.16.92,2.26,1.9,3.33,2.93a25.45,25.45,0,0,1,3,3.37,25.81,25.81,0,0,1-4-2.15,42,42,0,0,1-3.6-2.58c-1.16-.92-2.26-1.9-3.33-2.93A26.1,26.1,0,0,1,317.11,392.82Z"/><path class="a" d="M311,377.33a9.34,9.34,0,0,1,4.67.94,20.87,20.87,0,0,1,4.07,2.43,25.44,25.44,0,0,1,3.46,3.18,15.21,15.21,0,0,1,2.69,3.88c-1.29-.92-2.52-1.81-3.74-2.73l-3.62-2.73c-1.2-.91-2.39-1.82-3.62-2.67A24.65,24.65,0,0,0,311,377.33Z"/><path class="a" d="M192.36,361.1c-.68,3.88-1.5,7.72-2.33,11.56l-1.28,5.75-1.36,5.72q-1.38,5.73-2.85,11.42c-1,3.79-2,7.59-3,11.36l-.05.18-.07.14c-1.62,2.95-3.2,5.92-4.87,8.85s-3.29,5.87-5,8.78-3.41,5.8-5.14,8.69-3.52,5.75-5.38,8.58c1.33-3.11,2.74-6.17,4.16-9.23s2.89-6.09,4.39-9.1,3-6,4.55-9,3.1-6,4.67-8.95l-.13.31c1-3.8,2.07-7.56,3.11-11.35s2.16-7.53,3.29-11.29l1.72-5.63,1.78-5.61C189.77,368.53,191,364.8,192.36,361.1Z"/><path class="a" d="M176.68,371c.35,4.45.41,8.9.36,13.36s-.27,8.9-.61,13.35A129.68,129.68,0,0,1,174.7,411a59.37,59.37,0,0,1-1.6,6.54c-.18.53-.35,1.07-.57,1.59a13.32,13.32,0,0,1-.67,1.56,6.72,6.72,0,0,1-2,2.68,7.23,7.23,0,0,0,1.51-2.89,26.57,26.57,0,0,0,.8-3.19c.44-2.15.73-4.34,1-6.53.52-4.38.92-8.79,1.28-13.2C175.18,388.72,175.73,379.87,176.68,371Z"/><path class="a" d="M177.69,339.79c-2.17,4.34-4.53,8.53-6.93,12.69l-3.59,6.23c-1.17,2.05-2.44,4.15-3.34,6.17-.12.26-.2.47-.28.68a.19.19,0,0,1,0,.07s0,.1,0-.1a1.34,1.34,0,0,0-.11-.4c0-.14-.25-.32-.17-.27s0,0,.13.09a1.48,1.48,0,0,0,.29.17,6.92,6.92,0,0,0,.72.35c1,.46,2.14.86,3.24,1.27,2.22.84,4.5,1.56,6.76,2.37,4.53,1.56,9.08,3.13,13.58,4.94a124.1,124.1,0,0,1-14.24-2.69c-2.36-.55-4.68-1.23-7-1.93-1.17-.37-2.31-.78-3.5-1.27-.3-.13-.6-.26-.91-.43a5.13,5.13,0,0,1-.5-.27,3.85,3.85,0,0,1-.59-.44,2.07,2.07,0,0,1-.46-.61,1.54,1.54,0,0,1-.19-.83,1.79,1.79,0,0,1,.05-.54l.09-.37a8.71,8.71,0,0,1,.39-1,36.77,36.77,0,0,1,1.77-3.31c.62-1.05,1.23-2.1,1.89-3.12,1.32-2,2.63-4.05,4-6A139.68,139.68,0,0,1,177.69,339.79Z"/><path class="a" d="M162.05,365.71a20.8,20.8,0,0,1,4.29,2.17,33.54,33.54,0,0,1,7,6.11,20.06,20.06,0,0,1,2.75,3.94,20.36,20.36,0,0,1-4.3-2.16,33.08,33.08,0,0,1-3.73-2.81,34.36,34.36,0,0,1-3.31-3.3A20.89,20.89,0,0,1,162.05,365.71Z"/><path class="a" d="M190.05,427.38q8.35,0,16.67.46c5.55.25,11.09.61,16.62,1s11.07.88,16.6,1.45,11,1.21,16.55,2c-5.57,0-11.12-.17-16.67-.45s-11.09-.62-16.62-1-11.07-.89-16.6-1.45S195.56,428.18,190.05,427.38Z"/><path class="a" d="M182.6,434.38a19.55,19.55,0,0,1-1.22,3.77,33.2,33.2,0,0,1-3.8,6.78,19.68,19.68,0,0,1-2.58,3,20,20,0,0,1,1.22-3.77,34.31,34.31,0,0,1,1.71-3.5,32.51,32.51,0,0,1,2.1-3.28A20.18,20.18,0,0,1,182.6,434.38Z"/><path class="a" d="M337.85,178.58c-6.91,4.07-13.89,8-20.84,12q-5.2,3-10.45,5.94l-10.48,5.9-.5.29-.46-.27a2.33,2.33,0,0,1-.83-.78,7,7,0,0,1-.39-.66c-.21-.41-.38-.81-.55-1.21l-.94-2.31a29.63,29.63,0,0,0-2.09-4.31,10.53,10.53,0,0,0-2.93-3.32,5.82,5.82,0,0,0-1.85-.84l-.5-.09-.45,0a8,8,0,0,0-1.06.07,48.09,48.09,0,0,0-9.2,2.79q-4.59,1.78-9.09,3.85c-6,2.72-12,5.61-17.76,8.71-1.44.78-2.9,1.58-4.25,2.41l-.48.31-.34.24c-.06,0-.06.12-.12.16a4,4,0,0,0-.18.36,13.85,13.85,0,0,0-.62,2.1,70.46,70.46,0,0,0-1.27,9.62l-.14,1.83-1.74-.51a3.49,3.49,0,0,0-1.17-.06,9.94,9.94,0,0,0-1.46.22c-.5.11-1,.24-1.51.4s-1,.33-1.48.51l-.76.3-.59-.43a15,15,0,0,1-2.5-2.45c-.69-.81-1.34-1.63-2-2.44L225,214.5a26.68,26.68,0,0,0-1.94-2.19c-.32-.28-.6-.55-.73-.52a6.52,6.52,0,0,0-1.23-.19c-.94-.09-2-.1-3-.11-2,0-4,.14-6.07.32a55.53,55.53,0,0,0-6,.85,13.43,13.43,0,0,0-2.67.78,5.83,5.83,0,0,0-1.92,1.66,27.74,27.74,0,0,0-3.09,5,30.38,30.38,0,0,0-2.12,5.56A7.67,7.67,0,0,0,196,227a4.35,4.35,0,0,0,.17,1.24,26.64,26.64,0,0,0,.87,2.86c.67,1.91,1.45,3.81,2.3,5.67s1.75,3.69,2.75,5.47a21.86,21.86,0,0,0,3.45,4.85,2.28,2.28,0,0,0,1.05.61,7.1,7.1,0,0,0,1.41.1,22.27,22.27,0,0,0,3-.31c2-.32,4-.77,6-1.26q6-1.5,11.93-3.33c-3.87,1.46-7.77,2.84-11.75,4-2,.59-4,1.13-6,1.56a24.31,24.31,0,0,1-3.13.46,7.35,7.35,0,0,1-1.68,0,3.35,3.35,0,0,1-1.65-.82,13.38,13.38,0,0,1-2.19-2.41c-.63-.85-1.22-1.73-1.76-2.62-1.09-1.79-2.08-3.63-3-5.5s-1.78-3.78-2.55-5.74a27.81,27.81,0,0,1-1-3,6.43,6.43,0,0,1-.27-1.8,9.25,9.25,0,0,1,.24-1.74,31.51,31.51,0,0,1,2.13-6.06,29.7,29.7,0,0,1,3.25-5.58,12.62,12.62,0,0,1,1.16-1.29,5.45,5.45,0,0,1,.72-.6,4.36,4.36,0,0,1,.83-.5,14.73,14.73,0,0,1,3.23-1,54.74,54.74,0,0,1,6.27-1c2.09-.23,4.18-.38,6.3-.42,1.06,0,2.12,0,3.23.06a9.27,9.27,0,0,1,1.83.29c.21.07.41.14.6.22a4.41,4.41,0,0,1,.48.31,7,7,0,0,1,.75.61,54.6,54.6,0,0,1,4.18,4.84c.64.8,1.28,1.61,1.93,2.36a13,13,0,0,0,1.9,1.9l-1.35-.13c.59-.24,1.13-.42,1.71-.61s1.15-.33,1.75-.47a13.69,13.69,0,0,1,1.88-.29,6.54,6.54,0,0,1,2.19.17l-1.88,1.32a75,75,0,0,1,1.29-10.1,14.42,14.42,0,0,1,.82-2.64,4.93,4.93,0,0,1,.39-.75,3.34,3.34,0,0,1,.66-.79,7.71,7.71,0,0,1,.66-.49c.2-.14.38-.24.57-.36,1.48-.91,2.94-1.69,4.42-2.48q8.86-4.68,18-8.7c3.06-1.34,6.14-2.61,9.29-3.78a49.84,49.84,0,0,1,9.85-2.8,10.8,10.8,0,0,1,1.42-.07l.79.06.72.16a8.2,8.2,0,0,1,2.63,1.26,13,13,0,0,1,3.54,4.14,33.12,33.12,0,0,1,2.13,4.68l.88,2.32c.15.37.3.74.45,1.06.08.16.16.32.23.43s.16.16,0,.1h-1L305.75,195q5.33-2.79,10.68-5.53C323.56,185.86,330.68,182.16,337.85,178.58Z"/><path class="a" d="M231.72,235.18l.19-5.5.26-5.49V224l.16-.14a7,7,0,0,1,3.91-1.56,10.87,10.87,0,0,1,4.17.44l.22.07.17.23a82.54,82.54,0,0,0,6.29,8.09,36,36,0,0,0,3.56,3.54c1.23,1,2.69,2,3.79,2a24.76,24.76,0,0,0,4.75-1c1.63-.46,3.26-1,4.87-1.54,3.25-1.1,6.45-2.35,9.65-3.6s6.37-2.58,9.51-4,6.26-2.85,9.16-4.48a11.63,11.63,0,0,0,1.87-1.24c.08-.06,0,0,0,0h0l0-.06a2,2,0,0,0,.12-.35,7.21,7.21,0,0,0,.17-1,34.16,34.16,0,0,0-.06-4.94l-.39-5.15c-.07-.87-.13-1.75-.16-2.65,0-.45,0-.91,0-1.4,0-.24,0-.5.07-.79a2.75,2.75,0,0,1,.1-.48,1.75,1.75,0,0,1,.1-.3,3.55,3.55,0,0,1,.2-.39l.15-.24.28-.17q5.25-3,10.55-6t10.6-6c3.53-2,7.09-3.92,10.66-5.85s7.11-3.87,10.71-5.75c-3.38,2.25-6.79,4.43-10.21,6.61s-6.82,4.37-10.26,6.51-6.88,4.29-10.33,6.41-6.9,4.25-10.37,6.34l.43-.4a.27.27,0,0,0,.06-.1s0,0,0,0a.51.51,0,0,0,0,.15c0,.13,0,.31,0,.5,0,.37,0,.78,0,1.19,0,.83.13,1.68.21,2.53.16,1.71.36,3.43.49,5.18a37.21,37.21,0,0,1,.1,5.41,9.93,9.93,0,0,1-.24,1.52,5.14,5.14,0,0,1-.31.87,3.26,3.26,0,0,1-.68.95,13.83,13.83,0,0,1-2.42,1.68,94.91,94.91,0,0,1-9.46,4.63c-3.19,1.4-6.41,2.7-9.65,4s-6.53,2.4-9.86,3.46c-1.66.53-3.33,1-5,1.47a23.43,23.43,0,0,1-5.43.89,5.63,5.63,0,0,1-.87-.07c-.28-.06-.51-.17-.77-.25a6.48,6.48,0,0,1-1.37-.68,9,9,0,0,1-1.17-.81,13,13,0,0,1-1-.89,34.28,34.28,0,0,1-3.64-3.91,81.72,81.72,0,0,1-6-8.6l.38.3a9.78,9.78,0,0,0-3.62-.65,6.06,6.06,0,0,0-3.42,1.08l.16-.31-.65,5.46Z"/><path class="c" d="M263.24,176.57c13.38-4.54,31.23-2.49,31.23-2.49s-25.4,6.57-32.62,10.88"/><path class="a" d="M200.93,204.92a28,28,0,0,1,5-1,48.11,48.11,0,0,1,5.08-.32,41.23,41.23,0,0,1,5.09.27,23.25,23.25,0,0,1,5,1.09,35.2,35.2,0,0,0-5-.71c-1.68-.12-3.36-.19-5-.15s-3.37.08-5.05.21A44.58,44.58,0,0,0,200.93,204.92Z"/><path class="a" d="M214.18,207.3a3,3,0,0,1,1.11-.12,3.29,3.29,0,0,1,1.11.23,2.85,2.85,0,0,1,1,.63,2,2,0,0,1,.51,1,4.33,4.33,0,0,0-.76-.73,5.86,5.86,0,0,0-.9-.46A15.86,15.86,0,0,0,214.18,207.3Z"/><path class="a" d="M261.85,192a11.34,11.34,0,0,1,4-2.75,29,29,0,0,1,4.58-1.63,33.83,33.83,0,0,1,4.78-.9,28,28,0,0,1,4.84-.16c-1.61.11-3.21.28-4.79.54a41.78,41.78,0,0,0-4.7,1,34.6,34.6,0,0,0-4.55,1.5A13.67,13.67,0,0,0,261.85,192Z"/><path class="a" d="M248,208.18a15.49,15.49,0,0,1-.79-2.79,14.59,14.59,0,0,1-.31-2.88,16.42,16.42,0,0,1,1.1,5.67Z"/><path class="a" d="M307.6,365.52s0-.06.07-.08.08.07.08.1a.81.81,0,0,1,0,.22c0,.14,0,.28,0,.43s-.09.55-.14.83c-.11.55-.24,1.1-.39,1.64-.28,1.08-.63,2.14-1,3.19a36.69,36.69,0,0,1-2.8,6.08,42.24,42.24,0,0,1,1.86-6.42c.38-1,.78-2.08,1.21-3.1l.66-1.53.33-.77c.06-.12.11-.25.16-.38S307.77,365.37,307.6,365.52Z"/><path class="a" d="M358.36,189.27c-1.56-2.23-3.1-4.46-4.84-6.52a28,28,0,0,0-2.68-2.95,10.09,10.09,0,0,0-1.47-1.19,3.14,3.14,0,0,0-.73-.34,1,1,0,0,0-.6,0,5.2,5.2,0,0,0-1.5.84,15.43,15.43,0,0,0-1.48,1.24,32,32,0,0,0-2.7,2.88,35.61,35.61,0,0,0-4.48,6.49,9.77,9.77,0,0,0-.69,1.68c0,.14-.05.26-.08.38s0,.2,0,.34a3.15,3.15,0,0,0,.12.78,12.87,12.87,0,0,0,1.82,3.26,12.43,12.43,0,0,1,1.9,3.92,7.61,7.61,0,0,1-.23,4.48,11.74,11.74,0,0,1-2.31,3.63,13,13,0,0,0-2.35,3.07,3.42,3.42,0,0,0,.87,3.37,10,10,0,0,0,3.16,2.43,8.94,8.94,0,0,1-3.55-2.07,5.41,5.41,0,0,1-1.23-1.77,3.32,3.32,0,0,1-.17-2.27,13.32,13.32,0,0,1,2.25-3.58,11,11,0,0,0,1.86-3.31,6.36,6.36,0,0,0,0-3.54,11.07,11.07,0,0,0-1.77-3.3,13.15,13.15,0,0,1-2.14-3.8,4.87,4.87,0,0,1-.21-1.22c0-.2,0-.44,0-.68a5.47,5.47,0,0,1,.13-.61,10.34,10.34,0,0,1,.82-2.09,35.34,35.34,0,0,1,4.83-6.83,34.34,34.34,0,0,1,3-2.95,18.51,18.51,0,0,1,1.69-1.31,6.64,6.64,0,0,1,2.11-1,2.51,2.51,0,0,1,1.41.08,4.33,4.33,0,0,1,1.07.57,10.35,10.35,0,0,1,1.61,1.47,30.21,30.21,0,0,1,2.53,3.28A63.42,63.42,0,0,1,358.36,189.27Z"/><path class="a" d="M345,190.3a6.72,6.72,0,0,1,5.23,1.18,5.85,5.85,0,0,1,1.84,2.28,6.9,6.9,0,0,1,.64,2.86,8.79,8.79,0,0,1-1.86,5.25,11.41,11.41,0,0,1-4,3.47,33.18,33.18,0,0,0,2.67-4.29,10.16,10.16,0,0,0,1.21-4.42,5.89,5.89,0,0,0-1.5-4A9.33,9.33,0,0,0,345,190.3Z"/><path class="a" d="M271,199.71a8.11,8.11,0,0,0-2.44,4.41,9.83,9.83,0,0,0,.45,4.95,7.23,7.23,0,0,0,2.84,3.92,8.68,8.68,0,0,0,4.86,1.31,7,7,0,0,1-8.64-4.92,9.39,9.39,0,0,1-.23-5.43A7.18,7.18,0,0,1,271,199.71Z"/><path class="a" d="M220.94,218.48a7.08,7.08,0,0,0-2.44,3.77,9.27,9.27,0,0,0,0,4.41,7.68,7.68,0,0,0,2.3,3.72,13.14,13.14,0,0,0,3.93,2.42,9.73,9.73,0,0,1-4.4-1.85,7.52,7.52,0,0,1-2.79-4,8.56,8.56,0,0,1,.14-4.91A6,6,0,0,1,220.94,218.48Z"/><circle class="b" cx="250.5" cy="249.91" r="212.52"/><path class="a" d="M250.5,294.45a11.78,11.78,0,0,1,1-5.2,31.73,31.73,0,0,1,2.32-4.76,46.06,46.06,0,0,1,6.32-8.43c-1.81,3-3.7,5.93-5.46,8.93-.89,1.49-1.71,3-2.47,4.57A16.69,16.69,0,0,0,250.5,294.45Z"/><path class="a" d="M242.56,302.71a15.07,15.07,0,0,1-3.33-2.39,14.85,14.85,0,0,1-2.65-3.13,17,17,0,0,1,6,5.52Z"/><path class="a" d="M250,277a14.35,14.35,0,0,0-2.86,2.86,37.9,37.9,0,0,0-2.37,3.28c-.75,1.12-1.45,2.28-2.12,3.45a14.81,14.81,0,0,0-1.61,3.72,9.09,9.09,0,0,1,.91-4.06,23.13,23.13,0,0,1,2-3.66,20,20,0,0,1,2.62-3.25A9.09,9.09,0,0,1,250,277Z"/><path class="a" d="M307.72,252.36c2.68-.17,5.37-.31,8-.43h.09a45.17,45.17,0,0,1,6.44,1.68,19.46,19.46,0,0,1,3.12,1.37,9.47,9.47,0,0,1,1.49,1,3.84,3.84,0,0,1,1.2,1.71,2.59,2.59,0,0,1-.4,2.35,3.21,3.21,0,0,1-.39.46l-.36.3a4.86,4.86,0,0,1-.71.55,32.37,32.37,0,0,1-2.84,1.82c-1.91,1.13-3.85,2.19-5.79,3.21-7.79,4.07-15.72,7.79-23.66,11.48L270.1,288.79c-2,.93-4,1.85-5.83,2.84l-.69.37-.62.38c-.13.14-.18.07-.31.28a2.84,2.84,0,0,0-.31.55,11.37,11.37,0,0,0-.87,2.86,22.65,22.65,0,0,0-.36,6.26,11.77,11.77,0,0,0,.63,3,3.08,3.08,0,0,0,1.67,2h-.26a12.55,12.55,0,0,0,2.85-.76,29.93,29.93,0,0,0,2.81-1.19,60.27,60.27,0,0,0,5.4-3,50.14,50.14,0,0,1-5.08,3.55,27.07,27.07,0,0,1-2.76,1.49,13.75,13.75,0,0,1-3,1.06l-.11,0-.15,0a3.44,3.44,0,0,1-1.69-1,6.26,6.26,0,0,1-1-1.56,12.81,12.81,0,0,1-.95-3.36,23.9,23.9,0,0,1,0-6.81,13.86,13.86,0,0,1,.89-3.44,5.81,5.81,0,0,1,.46-.89,3.53,3.53,0,0,1,.85-.88l.75-.51.73-.45c1.94-1.15,3.89-2.14,5.86-3.12,7.85-3.94,15.81-7.58,23.75-11.25l11.93-5.46q6-2.7,11.87-5.51c2-.93,3.93-1.89,5.83-2.9,1-.5,1.91-1,2.77-1.58a6.44,6.44,0,0,0,.61-.42l.29-.21c.1-.08.09-.11.15-.15s.18-.24.2-.35a.61.61,0,0,0,0-.38c-.12-.59-.95-1.33-1.78-1.86a21.16,21.16,0,0,0-2.8-1.46,47.49,47.49,0,0,0-6.11-2.14h.09C313.09,252.66,310.4,252.52,307.72,252.36Z"/><path class="d" d="M252.76,209.06c-.81,5.32,2.11,10.9,5.23,12.35"/></svg>